<?xml version="1.0" standalone="no"?>
<!DOCTYPE svg PUBLIC "-//W3C//DTD SVG 20010904//EN"
 "http://www.w3.org/TR/2001/REC-SVG-20010904/DTD/svg10.dtd">
<svg version="1.0" xmlns="http://www.w3.org/2000/svg"
 width="104.000000pt" height="104.000000pt" viewBox="0 0 104.000000 104.000000"
 preserveAspectRatio="xMidYMid meet">
<metadata>
Created by potrace 1.14, written by Peter Selinger 2001-2017
</metadata>
<g transform="translate(0.000000,104.000000) scale(0.100000,-0.100000)"
fill="#000000" stroke="none">
<path d="M481 893 c-32 -28 -35 -70 -6 -99 29 -29 68 -31 95 -4 44 44 16 120
-45 120 -13 0 -32 -8 -44 -17z"/>
<path d="M184 789 c18 -137 124 -253 260 -284 58 -13 131 -12 179 4 18 6 34
10 37 9 10 -5 103 68 131 104 39 48 69 118 76 173 l5 45 -76 0 c-70 0 -76 -2
-76 -20 0 -64 -72 -151 -141 -168 -98 -25 -185 13 -230 100 -11 21 -20 49 -21
63 -2 24 -4 25 -76 25 l-75 0 7 -51z"/>
<path d="M353 450 c-92 -53 -158 -151 -170 -253 l-6 -47 75 0 75 0 6 40 c3 23
17 56 31 74 91 120 263 105 338 -29 17 -32 18 -34 18 -65 0 -18 7 -20 75 -20
l76 0 -5 47 c-8 60 -44 137 -90 190 -47 53 -133 97 -167 85 -24 -9 -146 -8
-185 1 -13 3 -41 -6 -71 -23z"/>
</g>
</svg>
